<?xml version="1.0" encoding="utf-8"?>
<!-- Generator: Adobe Illustrator 16.0.0, SVG Export Plug-In . SVG Version: 6.00 Build 0)  -->
<!DOCTYPE svg PUBLIC "-//W3C//DTD SVG 1.1//EN" "http://www.w3.org/Graphics/SVG/1.1/DTD/svg11.dtd">
<svg version="1.1" id="Layer_1" xmlns="http://www.w3.org/2000/svg" xmlns:xlink="http://www.w3.org/1999/xlink" x="0px" y="0px"
	 width="300px" height="200px" viewBox="0 0 300 200" enable-background="new 0 0 300 200" xml:space="preserve">
<g>
	<path fill="#013A60" d="M141.896,84.092c1.665-0.564,2.959-1.714,4.387-2.601c5.714-3.548,11.702-6.422,18.38-7.618
		c4.426-0.792,8.871-0.8,13.308-0.071c3.653,0.601,5.36,3.276,6.378,6.426c1.369,4.23,1.665,8.604,1.177,13.028
		c-0.06,0.543-0.382,1.258,0.125,1.585c0.506,0.325,1.052-0.265,1.556-0.494c10.009-4.555,20.497-6.743,31.471-5.818
		c6.258,0.528,12.193,2.296,17.239,6.382c5.181,4.193,7.757,9.71,8.631,16.167c0.128,0.96,0.259,1.922,0.333,2.886
		c0.145,1.956-1.249,3.833-2.835,3.864c-1.631,0.031-2.921-1.472-2.94-3.541c-0.047-5-1.315-9.502-5.241-12.906
		c-3.486-3.026-7.697-4.206-12.184-4.343c-15.99-0.486-29.777,5.262-42.113,15.053c-1.432,1.137-3.058,1.979-4.891,1.06
		c-1.938-0.976-3.167-2.548-3.332-4.83c-0.198-2.766,0.924-5.248,1.602-7.829c0.923-3.528,1.855-7.049,1.535-10.771
		c-0.094-1.073-0.498-1.292-1.481-1.331c-5.344-0.205-10.276,1.333-15.024,3.538c-8.912,4.137-16.697,9.993-24.25,16.176
		c-3.001,2.457-5.914,5.022-8.889,7.513c-3.442,2.881-7.622,1.791-9.477-2.446c-1.395-3.188-0.621-6.366,1.695-9.003
		c9.169-10.44,14.23-22.354,12.737-36.545c-0.156-1.482-0.349-2.938-0.738-4.373c-1.057-3.9-3.947-6.138-8.043-6.492
		c-3.81-0.329-7.391,0.421-10.796,1.997c-7.75,3.587-14.915,8.086-21.357,13.738c-8.002,7.018-14.252,15.492-20.401,24.07
		c-5.045,7.039-9.798,14.289-15.121,21.13c-3.575,4.596-8.523,4.122-11.385-1.1c-1.502-2.743-1.411-5.516,0.368-8.09
		c7.316-10.587,14.349-21.374,22.36-31.469c9.339-11.769,20.383-21.481,33.77-28.449c5.071-2.639,10.137-5.192,15.889-6.044
		c7.576-1.123,14.554,0.023,20.476,5.238c3.128,2.755,5.009,6.343,6.178,10.265c2.332,7.823,2.309,15.772,0.938,23.757
		C141.802,82.523,141.58,83.231,141.896,84.092z"/>
	<path fill="#013A60" d="M196.282,168.196c1.264-3.413,2.456-6.666,3.67-9.908c3.5-9.355,7.028-18.7,10.482-28.073
		c0.391-1.063,0.906-1.392,1.98-1.36c2.405,0.069,4.816,0.114,7.217-0.017c1.203-0.065,1.703,0.36,2.095,1.416
		c3.58,9.67,7.202,19.325,10.809,28.986c0.959,2.568,1.863,5.154,2.885,7.697c0.395,0.98,0.308,1.304-0.821,1.279
		c-2.635-0.056-5.271-0.055-7.904,0c-0.906,0.021-1.31-0.295-1.573-1.156c-0.519-1.692-1.28-3.317-1.728-5.025
		c-0.26-0.987-0.747-1.077-1.577-1.071c-3.894,0.031-7.791,0.043-11.685-0.008c-0.9-0.014-1.33,0.28-1.595,1.125
		c-0.546,1.737-1.192,3.441-1.778,5.169c-0.197,0.581-0.418,0.975-1.172,0.963C202.559,168.17,199.535,168.196,196.282,168.196z
		 M216.285,140.18c-0.171,0.005-0.341,0.01-0.512,0.015c-1.415,4.375-2.83,8.749-4.261,13.176c3.099,0,5.974,0,8.957,0
		C219.048,148.891,217.666,144.536,216.285,140.18z"/>
	<path fill="#013A60" d="M4.38,148.455c0-6.017,0-12.031,0-18.047c0-0.789-0.197-1.582,1.127-1.554
		c6.698,0.143,13.406-0.272,20.093,0.205c7.86,0.562,12.589,6.789,11.437,14.59c-0.588,3.98-1.935,7.371-5.65,9.418
		c-1.989,1.096-4.136,1.645-6.377,1.707c-3.034,0.087-6.073,0.08-9.107,0.022c-1.084-0.021-1.474,0.222-1.445,1.403
		c0.087,3.491-0.021,6.988,0.059,10.483c0.027,1.245-0.404,1.576-1.583,1.537c-2.347-0.076-4.7-0.089-7.045,0.006
		c-1.23,0.049-1.54-0.377-1.53-1.555C4.408,160.603,4.38,154.528,4.38,148.455z M14.521,141.994c0,1.374,0.038,2.749-0.014,4.121
		c-0.03,0.819,0.264,1.128,1.083,1.087c2.339-0.116,4.689,0.175,7.024-0.207c3.228-0.526,4.521-2.121,4.307-5.379
		c-0.191-2.908-1.988-4.602-5.033-4.67c-1.945-0.045-3.899,0.091-5.836-0.043c-1.378-0.095-1.657,0.44-1.553,1.656
		C14.597,139.698,14.52,140.85,14.521,141.994z"/>
	<path fill="#FA8312" d="M148.607,49.168c0.159-7.163,4.12-11.847,10.113-15.052c3.143-1.68,6.537-2.521,10.199-2.156
		c6.021,0.601,10.668,5.8,11.711,11.321c0.56,2.962,0.215,5.81-0.752,8.564c-1.414,4.031-3.187,7.906-6.192,11.065
		c-2.687,2.825-5.907,3.174-9.401,1.903c-1.24-0.451-2.44-0.681-3.778-0.771c-3.827-0.258-6.758-2.37-8.89-5.416
		C149.665,55.841,148.486,52.693,148.607,49.168z M154.224,49.696c1.717-4.824,5.354-7.582,9.938-9.292
		c2.725-1.015,5.054,0.067,5.934,2.635c0.839,2.443-0.38,4.656-3.07,5.581c-1.405,0.482-2.84,0.897-4.112,1.688
		c-1.028,0.639-1.689,1.469-1.564,2.812c0.259,2.75,2.447,5.413,5.136,5.999c1.367,0.298,2.827,0.435,3.671-1.034
		c2.051-3.565,4.091-7.16,4.534-11.36c0.462-4.372-2.787-8.431-7.147-8.943c-3.488-0.41-6.577,0.732-9.245,2.872
		C155.465,42.929,153.797,45.85,154.224,49.696z"/>
	<path fill="#013A60" d="M182.032,159.717c-0.834,3.509-3.001,5.907-6.002,7.37c-4.968,2.422-10.145,2.521-15.261,0.384
		c-7.36-3.075-9.419-11.536-7.789-17.493c2.989-10.918,15.836-14.005,23.582-8.541c4.717,3.325,6.14,8.298,6.123,13.822
		c-0.004,0.98-0.729,0.712-1.213,0.718c-3.263,0.035-6.527,0.033-9.791,0.039c-2.92,0.003-5.841,0.06-8.759-0.029
		c-1.167-0.035-1.334,0.44-1.25,1.408c0.269,3.003,2.792,5.257,5.853,5.378c2.449,0.1,4.552-0.373,5.89-2.636
		c0.244-0.412,0.576-0.487,1.002-0.485c2.177,0.01,4.354,0,6.53,0.004C181.273,159.655,181.6,159.691,182.032,159.717z
		 M167.542,150.989c1.486,0,2.976-0.082,4.453,0.023c1.508,0.108,1.566-0.542,1.202-1.715c-0.844-2.716-3.077-4.439-5.674-4.295
		c-2.75,0.155-5.133,2.342-5.68,5.096c-0.15,0.753,0.075,0.899,0.729,0.895C164.229,150.977,165.886,150.987,167.542,150.989z"/>
	<path fill="#013A60" d="M99.739,159.654c-1.015,3.696-3.297,6.116-6.614,7.702c-5.854,2.801-14.435,1.753-18.638-2.488
		c-4.469-4.513-5.357-10.058-3.492-15.862c1.853-5.772,6.192-9.117,12.188-9.961c9.091-1.278,15.8,3.951,16.963,13.009
		c0.509,3.963,0.509,3.963-3.502,3.962c-5.329-0.001-10.658,0.033-15.985-0.033c-1.258-0.016-1.539,0.296-1.29,1.538
		c0.521,2.59,1.837,4.589,4.443,5.073c2.585,0.479,5.319,0.559,7.079-2.118c0.372-0.566,0.812-0.855,1.545-0.84
		C94.834,159.685,97.231,159.654,99.739,159.654z M85.269,150.991c1.599,0,3.2-0.031,4.798,0.013
		c0.951,0.026,1.154-0.263,0.936-1.215c-0.66-2.87-2.916-4.853-5.629-4.799c-2.81,0.054-5.215,2.109-5.822,4.915
		c-0.184,0.849,0.063,1.125,0.919,1.101C82.069,150.958,83.67,150.991,85.269,150.991z"/>
	<path fill="#013A60" d="M102.732,153.96c0-4.295,0.039-8.589-0.027-12.883c-0.018-1.129,0.301-1.477,1.428-1.428
		c2,0.089,4.008,0.074,6.011,0.007c0.999-0.035,1.547,0.171,1.362,1.297c-0.056,0.335-0.037,0.688,0,1.028
		c0.038,0.367-0.219,0.874,0.239,1.064c0.603,0.25,0.713-0.407,1.003-0.71c3.298-3.429,8.996-4.488,13.268-2.519
		c3.665,1.69,4.882,4.92,4.994,8.529c0.192,6.178,0.041,12.367,0.071,18.551c0.005,0.94-0.26,1.343-1.263,1.317
		c-2.174-0.057-4.355-0.092-6.526,0.014c-1.324,0.063-1.488-0.542-1.479-1.639c0.04-5.095,0.018-10.192,0.018-15.289
		c0-3.267-1.017-4.593-3.866-5.033c-2.723-0.42-4.95,0.986-5.782,3.679c-0.289,0.935-0.389,1.893-0.384,2.877
		c0.021,4.638-0.02,9.278,0.031,13.914c0.012,1.109-0.301,1.526-1.453,1.483c-2.116-0.078-4.239-0.086-6.354,0.006
		c-1.116,0.047-1.322-0.377-1.312-1.381C102.758,162.551,102.731,158.255,102.732,153.96z"/>
	<path fill="#013A60" d="M58.734,164.54c-3.8,3.919-8.03,5.285-13.084,3.813c-3.868-1.127-6.277-4.641-6.336-9.37
		c-0.076-6.016-0.008-12.031-0.079-18.047c-0.014-1.146,0.426-1.311,1.401-1.283c2.118,0.061,4.243,0.097,6.357-0.01
		c1.208-0.06,1.408,0.414,1.398,1.476c-0.044,5.1-0.023,10.198-0.019,15.297c0.003,3.064,1.135,4.715,3.372,4.949
		c3.5,0.37,5.71-0.993,6.439-3.945c0.488-1.976,0.317-3.983,0.33-5.981c0.02-3.438,0.04-6.875-0.016-10.312
		c-0.017-1.049,0.163-1.541,1.377-1.483c2.172,0.103,4.354,0.059,6.53,0.017c0.808-0.019,1.089,0.223,1.086,1.061
		c-0.024,8.821-0.026,17.646,0.002,26.468c0.003,0.875-0.335,1.04-1.108,1.022c-2.062-0.042-4.128-0.083-6.186,0.014
		c-1.214,0.059-1.651-0.319-1.485-1.529C58.813,165.991,58.734,165.26,58.734,164.54z"/>
	<path fill="#013A60" d="M282.452,168.887c-8.789,0.001-14.939-6.247-14.969-15.207c-0.028-8.523,6.453-14.846,15.206-14.831
		c8.3,0.015,14.843,6.701,14.814,15.142C297.477,162.433,290.955,168.886,282.452,168.887z M288.245,153.887
		c-0.049-1.547-0.257-3.065-0.862-4.505c-1.032-2.45-2.664-3.572-5.117-3.532c-2.292,0.033-3.956,1.22-4.844,3.668
		c-1.09,3.001-1.103,6.029,0.108,9.025c0.89,2.196,2.57,3.381,4.881,3.394c2.243,0.012,3.896-1.158,4.845-3.224
		C287.955,157.186,288.213,155.559,288.245,153.887z"/>
	<path fill="#013A60" d="M136.961,152.71c0-2.005-0.055-4.009,0.023-6.01c0.039-1.008-0.325-1.211-1.261-1.22
		c-3.417-0.03-3.436-0.068-3.411-3.484c0.02-2.755-0.344-2.269,2.389-2.322c0.4-0.008,0.805-0.037,1.201,0.008
		c0.82,0.091,1.094-0.231,1.076-1.059c-0.048-2.174,0.021-4.353-0.034-6.525c-0.021-0.887,0.24-1.193,1.151-1.174
		c2.346,0.056,4.694,0.047,7.04-0.002c0.829-0.018,1.095,0.252,1.077,1.074c-0.046,2.174,0.023,4.352-0.035,6.523
		c-0.023,0.896,0.246,1.229,1.159,1.171c1.083-0.069,2.184,0.073,3.259-0.039c1.268-0.133,1.6,0.388,1.458,1.545
		c-0.173,1.397,0.623,3.272-0.331,4.083c-0.807,0.688-2.626,0.308-3.979,0.194c-1.326-0.112-1.608,0.35-1.579,1.608
		c0.087,3.774,0.025,7.555,0.033,11.333c0.005,2.373,0.659,3.037,3.016,3.113c2.829,0.092,2.838,0.092,2.825,2.886
		c-0.007,1.192,0.35,2.667-0.218,3.499c-0.553,0.815-2.128,0.17-3.244,0.325c-2.059,0.287-4.119,0.158-6.12-0.32
		c-3.276-0.782-4.767-2.656-5.168-5.962C136.914,158.877,136.955,155.797,136.961,152.71z"/>
	<path fill="#013A60" d="M266.931,161.532c0,1.935-0.007,3.877,0.005,5.817c0.004,0.53-0.109,0.854-0.748,0.854
		c-2.624-0.001-5.253,0.362-7.87-0.072c-4.072-0.675-6.062-2.916-6.142-7.144c-0.086-4.693-0.074-9.39-0.021-14.084
		c0.015-1.131-0.305-1.434-1.427-1.426c-3.412,0.022-3.412-0.025-3.412-3.47c0-2.333,0-2.317,2.328-2.337
		c2.864-0.023,2.449,0.383,2.482-2.421c0.02-1.718,0.049-3.438-0.016-5.153c-0.034-0.91,0.283-1.188,1.172-1.169
		c2.232,0.05,4.467,0.057,6.699-0.002c0.95-0.024,1.143,0.363,1.123,1.215c-0.049,2.118,0.019,4.238-0.03,6.355
		c-0.021,0.886,0.259,1.301,1.172,1.179c0.113-0.015,0.229-0.003,0.344-0.001c4.839,0.073,4.886,0.146,4.365,4.994
		c-0.074,0.686-0.31,0.862-0.938,0.847c-1.316-0.031-2.635,0.022-3.95-0.02c-0.735-0.025-0.998,0.214-0.991,0.973
		c0.03,4.122-0.021,8.245,0.034,12.368c0.023,1.825,0.945,2.638,2.82,2.692C264.892,161.556,265.854,161.532,266.931,161.532z"/>
	<path fill="#013A60" d="M245.613,148.628c0,5.957-0.031,11.915,0.025,17.872c0.013,1.255-0.187,1.842-1.635,1.734
		c-1.938-0.143-3.9-0.139-5.838-0.003c-1.426,0.101-1.69-0.455-1.686-1.731c0.038-11.285,0.023-22.569,0.023-33.854
		c0-3.768,0-3.803,3.709-3.752c1.753,0.022,4.023-0.761,5.113,0.328c1.01,1.008,0.262,3.266,0.275,4.971
		C245.636,139.004,245.613,143.817,245.613,148.628z"/>
	<path fill="#FA8312" d="M186.941,49.612c2.261-0.052,4.064,1.053,5.664,2.446c3.381,2.942,5.459,6.693,6.273,11.081
		c0.574,3.087-2.08,5.333-5.081,4.442c-3.429-1.018-4.41-2.249-4.542-5.829c-0.029-0.796-0.243-1.51-0.794-2.014
		c-1.746-1.598-2.709-3.636-3.461-5.811c-0.112-0.322-0.221-0.646-0.363-0.957C183.426,50.292,183.904,49.593,186.941,49.612z"/>
	<path fill="#FA8312" d="M146.98,16.222c2.076,0.001,3.55,1.713,3.202,3.849c-0.322,1.972-0.523,3.901-0.288,5.926
		c0.187,1.596-0.694,3.071-1.486,4.476c-0.726,1.288-1.312,2.588-0.9,4.173c0.238,0.912-0.334,1.656-1.093,2.152
		c-0.668,0.437-1.25,0.333-2.028-0.077c-2.388-1.254-2.292-3.605-2.519-5.654c-0.368-3.325-0.712-6.678-0.115-10.052
		C142.278,18.053,144.142,16.22,146.98,16.222z"/>
	<path fill="#FA8312" d="M188.059,41.274c-0.74,0.041-1.481,0.103-2.222,0.118c-1.312,0.027-2.004-0.765-2.228-1.93
		c-0.239-1.233,0.402-2.085,1.538-2.497c5.253-1.899,10.566-2.581,16.033-0.86c1.798,0.566,3.011,1.72,3.136,3.366
		c0.158,2.083-0.485,3.103-2.58,3.868c-1.121,0.408-2.276,0.75-3.44,1.003c-1.151,0.251-2.356,0.142-3.204-0.736
		C193.132,41.579,190.74,41.041,188.059,41.274z"/>
	<path fill="#FA8312" d="M197.556,21.033c0.023,1.836-1.183,3.253-3.229,3.918c-2.187,0.711-4.482,0.779-6.724,1.147
		c-1.617,0.266-2.869,1.011-4.093,1.95c-1.146,0.879-2.323,1.587-3.674,0.393c-1.296-1.146-1.476-2.687-0.51-4.292
		c1.514-2.51,3.939-3.949,6.497-5.039c2.182-0.928,4.578-1.34,6.859-2.017C195.016,16.401,197.647,18.828,197.556,21.033z"/>
	<path fill="#FA8312" d="M175.391,15.536c-0.23,1.09-0.604,2.05-1.776,2.509c-4.027,1.583-7.255,4.424-10.718,6.894
		c-0.637,0.455-0.889,1.165-1.243,1.815c-0.646,1.184-1.361,1.174-2.108,0.026c-0.404-0.621-0.477-1.25-0.26-1.957
		c0.688-2.229,1.279-4.489,2.033-6.694c1.655-4.84,7.097-7.85,11.363-6.355C174.337,12.355,175.405,13.839,175.391,15.536z"/>
	<path fill="#013A60" d="M222.425,186.023c0-3.03,0-6.062,0-9.18c1.047,0.297,0.785,0.963,0.791,1.467
		c0.021,2.576,0.025,5.152-0.006,7.729c-0.006,0.464,0.312,1.129-0.275,1.371c-0.68,0.28-0.963-0.339-1.289-0.83
		c-1.5-2.274-3.045-4.521-4.542-6.801c-0.319-0.485-0.613-0.946-1.445-1.263c0,2.46,0.002,4.818,0,7.177
		c0,0.458,0.013,0.918-0.022,1.374c-0.01,0.127-0.144,0.31-0.263,0.352c-0.251,0.089-0.479-0.062-0.479-0.314
		c-0.021-3.262-0.025-6.522-0.027-9.785c0-0.248,0.138-0.421,0.409-0.447c0.503-0.052,0.652,0.328,0.876,0.669
		c1.785,2.703,3.588,5.395,5.39,8.088c0.118,0.174,0.276,0.321,0.417,0.48C222.113,186.08,222.269,186.053,222.425,186.023z"/>
	<path fill="#013A60" d="M131.804,182.153c-0.001-1.374,0.036-2.748-0.015-4.119c-0.034-0.888,0.28-1.266,1.185-1.197
		c0.684,0.052,1.374,0.043,2.059,0.003c2.079-0.118,3.965,0.305,4.864,2.387c0.949,2.197,0.931,4.479-0.388,6.564
		c-0.879,1.392-2.354,1.67-3.904,1.702c-3.799,0.076-3.799,0.091-3.801-3.625C131.806,183.297,131.806,182.726,131.804,182.153z
		 M132.786,182.12c0,1.203-0.015,2.406,0.008,3.608c0.007,0.363-0.167,0.797,0.329,1.043c1.71,0.849,5.321-0.301,6.052-1.991
		c0.737-1.705,0.732-3.47,0.046-5.181c-0.703-1.756-3.475-2.823-5.843-2.022c-1.318,0.444-0.367,1.871-0.572,2.83
		C132.688,180.956,132.785,181.549,132.786,182.12z"/>
	<path fill="#013A60" d="M150.532,182.129c0-1.431,0.02-2.862-0.009-4.293c-0.015-0.716,0.227-1.042,0.988-0.998
		c0.855,0.051,1.719,0.044,2.576,0.004c3.885-0.181,5.277,2.695,5.036,5.963c-0.193,2.616-1.354,4.795-5.305,4.709
		c-3.282-0.07-3.282,0.017-3.284-3.324c0-0.687,0-1.373,0-2.061C150.536,182.129,150.532,182.129,150.532,182.129z M153.169,186.768
		c2.195,0.117,4.007-0.201,4.744-2.4c0.641-1.911,0.674-3.868-0.606-5.521c-1.342-1.73-3.394-1.267-5.24-1.319
		c-0.813-0.022-0.672,0.603-0.674,1.09c-0.01,2.053,0.08,4.11-0.032,6.157C151.276,186.317,151.524,187.276,153.169,186.768z"/>
	<path fill="#013A60" d="M285.142,182.104c-0.012-2.236,0.846-3.989,2.879-5.047c1.768-0.92,3.517-0.635,4.973,0.545
		c1.773,1.435,2.331,3.429,1.882,5.682c-0.82,4.113-4.617,5.843-7.763,3.533C285.878,185.911,285.135,184.13,285.142,182.104z
		 M294.103,182.208c0.101-0.867-0.056-1.713-0.388-2.508c-0.633-1.509-1.838-2.348-3.431-2.456
		c-1.528-0.104-2.823,0.521-3.575,1.899c-1.05,1.923-1.141,3.942-0.131,5.904c1.383,2.685,5.145,2.819,6.78,0.274
		C293.963,184.383,294.207,183.335,294.103,182.208z"/>
	<path fill="#013A60" d="M40.086,176.694c0.382,1.012,0.208,1.903,0.218,2.76c0.026,2.229,0.025,4.463-0.005,6.693
		c-0.006,0.419,0.272,1.016-0.235,1.239c-0.637,0.281-0.887-0.382-1.15-0.772c-1.592-2.347-3.16-4.712-4.71-7.086
		c-0.251-0.384-0.439-0.796-0.921-1.005c-0.643,0.359-0.374,0.993-0.379,1.505c-0.025,2.059,0.023,4.12-0.016,6.178
		c-0.007,0.42,0.358,1.218-0.458,1.194c-0.617-0.019-0.335-0.733-0.338-1.126c-0.029-2.746-0.029-5.492,0.001-8.238
		c0.003-0.388-0.311-0.958,0.341-1.158c0.604-0.184,0.785,0.361,1.02,0.708c1.623,2.397,3.209,4.819,4.841,7.211
		c0.266,0.389,0.392,1.15,1.021,0.979c0.658-0.18,0.298-0.886,0.308-1.338c0.042-2.059,0.004-4.12,0.028-6.18
		C39.659,177.802,39.456,177.262,40.086,176.694z"/>
	<path fill="#013A60" d="M107.354,182.188c0-0.399-0.106-0.838,0.019-1.194c0.476-1.351-1.24-3.755,1.037-4.039
		c5.042-0.63,7.184,0.837,7.505,4.406c0.292,3.262-1.105,6.353-5.412,6.165c-3.145-0.141-3.151,0.001-3.15-3.11
		C107.354,183.672,107.354,182.93,107.354,182.188z M108.092,182.091c0,1.201-0.01,2.402,0.007,3.602
		c0.005,0.375-0.122,0.793,0.347,1.049c2.33,1.264,6.069-0.552,6.502-3.153c0.161-0.968,0.169-1.921-0.002-2.89
		c-0.453-2.549-2.191-3.613-5.853-3.135c-2.089,0.273-0.584,2.11-0.976,3.163C107.968,181.129,108.092,181.635,108.092,182.091z"/>
	<path fill="#013A60" d="M69.371,182.155c0-1.427-0.007-2.854,0.005-4.281c0.004-0.431-0.119-1.03,0.577-1.006
		c1.642,0.059,3.297-0.252,4.925,0.286c1.289,0.425,1.834,1.374,1.817,2.58c-0.016,1.132-0.597,2.054-1.723,2.522
		c-1.087,0.455-2.232,0.462-3.366,0.371c-1.069-0.088-1.574,0.182-1.431,1.373c0.107,0.899,0.031,1.824,0.014,2.736
		c-0.005,0.309,0.102,0.762-0.45,0.704c-0.381-0.041-0.348-0.391-0.35-0.662c-0.006-1.541-0.003-3.083-0.003-4.624
		C69.382,182.155,69.377,182.155,69.371,182.155z M70.238,180.047c-0.168,1.121-0.142,2.112,1.817,1.975
		c2.767-0.194,3.644-0.565,3.67-2.237c0.025-1.698-0.935-2.104-3.78-2.321C69.766,177.299,70.246,178.623,70.238,180.047z"/>
	<path fill="#013A60" d="M211.143,176.849c-1.425,1.014-2.646,0.467-3.757,0.634c-0.885,0.134-2.222-0.454-2.562,0.281
		c-0.438,0.946-0.165,2.233-0.151,3.373c0.011,0.744,0.627,0.51,1.024,0.516c1.472,0.023,2.942,0.01,4.433,0.248
		c-1.105,0.568-2.322,0.478-3.461,0.361c-1.626-0.164-2.336,0.305-2.027,2.006c0.091,0.498,0.062,1.033,0.003,1.543
		c-0.099,0.869,0.305,1.049,1.088,1.027c1.744-0.05,3.492-0.017,5.244,0.167c-0.972,0.815-2.102,0.449-3.145,0.463
		c-4.012,0.056-4.017,0.021-4.009-3.94c0.005-1.889,0.053-3.776,0.029-5.665c-0.009-0.696,0.134-1.047,0.933-1.028
		C206.765,176.878,208.746,176.849,211.143,176.849z"/>
	<path fill="#013A60" d="M170.142,177.331c-1.525,0.324-3.102,0.188-4.639,0.117c-1.286-0.06-1.814,0.306-1.573,1.599
		c0.011,0.056,0.002,0.114,0.002,0.171c-0.008,2.445-0.008,2.445,2.371,2.446c1.08,0,2.162,0,3.243,0
		c-0.005,0.212-0.009,0.424-0.014,0.636c-1.488,0-2.978,0.04-4.464-0.016c-0.867-0.032-1.17,0.215-1.188,1.14
		c-0.07,3.396-0.109,3.396,3.207,3.396c1.048,0,2.097,0,3.146,0c0.004,0.166,0.007,0.332,0.011,0.498
		c-1.372,0.357-2.806,0.143-4.205,0.161c-2.947,0.039-2.944,0.013-2.939-2.928c0.005-2.172,0.028-4.345-0.016-6.515
		c-0.017-0.817,0.098-1.248,1.089-1.209c1.993,0.076,3.993,0.021,5.989,0.021C170.154,177.009,170.147,177.17,170.142,177.331z"/>
	<path fill="#013A60" d="M180.098,182.13c0-1.425-0.006-2.85,0.004-4.276c0.004-0.442-0.069-1.006,0.614-0.985
		c1.527,0.044,3.066-0.209,4.585,0.162c1.342,0.327,2.112,1.256,2.107,2.548c-0.006,1.225-0.563,2.271-1.902,2.753
		c-1.175,0.423-2.363,0.323-3.545,0.293c-0.839-0.023-1.095,0.26-1.048,1.068c0.059,1.022,0.021,2.051,0.009,3.079
		c-0.003,0.257,0.09,0.621-0.317,0.663c-0.517,0.055-0.484-0.354-0.486-0.685c-0.005-1.538-0.002-3.079-0.002-4.62
		C180.111,182.13,180.104,182.13,180.098,182.13z M182.927,177.504c-0.527,0.405-1.823-0.728-1.919,0.729
		c-0.08,1.209-0.633,2.959,0.292,3.543c0.992,0.628,2.646,0.418,3.96-0.128c1.21-0.504,1.689-2.097,0.896-3.122
		C185.365,177.506,184.177,177.55,182.927,177.504z"/>
	<path fill="#013A60" d="M59.117,179.993c-1.982-2.71-3.518-3.394-5.546-2.674c-1.725,0.614-2.795,2.891-2.588,5.502
		c0.188,2.346,1.319,3.972,3.004,4.313c2.307,0.471,3.469-0.218,4.88-2.886c0.272,0.829,0.262,1.064-0.214,1.671
		c-1.067,1.353-2.486,2.015-4.194,1.859c-1.734-0.157-2.933-1.107-3.625-2.732c-1.588-3.73-0.056-7.513,3.433-8.398
		C56.514,176.076,58.566,177.359,59.117,179.993z"/>
	<path fill="#013A60" d="M14.196,178.875c-1.011,0.238-1.001,0.973-1.208,1.514c-0.77,2.018-1.487,4.054-2.245,6.076
		c-0.149,0.398-0.197,1.028-0.785,0.948c-0.502-0.068-0.517-0.69-0.702-1.086c-0.268-0.568,0.227-1.315-0.242-1.692
		c0.063,0.536,0.313,1.316,1.101,1.284c0.661-0.028,0.616-0.868,0.806-1.363c0.86-2.229,1.69-4.471,2.471-6.729
		c0.206-0.593,0.341-1.083,1.111-0.971c0.845,0.125,0.5,0.778,0.506,1.209c0.03,2.74,0.028,5.481,0.009,8.222
		c-0.003,0.41,0.201,1.104-0.406,1.129c-0.714,0.029-0.393-0.688-0.398-1.063C14.18,183.9,14.196,181.444,14.196,178.875z"/>
	<path fill="#013A60" d="M119.21,187.296c1.035-2.624,2.071-5.248,3.104-7.872c0.272-0.69,0.519-1.389,0.812-2.069
		c0.34-0.79,0.893-0.781,1.183-0.06c1.328,3.312,2.577,6.655,3.652,10.148c-1.115-1.529-1.177-3.59-4.152-3.586
		c-2.991,0.003-3.349,1.743-4.103,3.675C119.541,187.454,119.375,187.376,119.21,187.296z M123.678,177.553
		c-0.724,2.18-1.594,3.838-2,5.797c1.125,0,2.098-0.053,3.063,0.015c1.01,0.069,1.021-0.408,0.744-1.129
		C124.937,180.81,124.385,179.383,123.678,177.553z"/>
	<path fill="#013A60" d="M253.906,187.395c0.829-2.172,1.633-4.303,2.452-6.428c0.429-1.113,0.872-2.223,1.332-3.325
		c0.143-0.347,0.213-0.767,0.756-0.793c0.589-0.029,0.589,0.426,0.724,0.773c1.237,3.222,2.47,6.447,3.868,10.101
		c-1.073-0.604-1.2-1.326-1.352-1.963c-0.302-1.275-0.907-2.045-2.353-1.711c-0.055,0.014-0.115,0.01-0.17,0.001
		c-2.344-0.381-4.124,0.101-4.477,2.858C254.66,187.137,254.526,187.479,253.906,187.395z M260.532,183.277
		c-0.681-1.844-1.322-3.585-2.122-5.752c-0.806,2.17-1.449,3.901-2.136,5.752C257.729,183.277,259.018,183.277,260.532,183.277z"/>
	<path fill="#013A60" d="M87.129,187.619c-0.984-1.74-1.132-3.848-4.226-3.769c-2.958,0.075-3.134,2.01-3.94,3.866
		c-0.152-0.129-0.304-0.257-0.458-0.386c1.328-3.363,2.636-6.735,4.006-10.08c0.238-0.582,0.82-0.735,1.107-0.007
		c1.321,3.354,2.592,6.726,3.88,10.091C87.375,187.43,87.252,187.525,87.129,187.619z M80.847,183.35
		c1.311,0,2.333-0.008,3.355,0.004c0.507,0.007,1.005-0.053,0.738-0.719c-0.608-1.511-0.986-3.13-2.03-4.817
		C82.172,179.799,81.549,181.467,80.847,183.35z"/>
	<path fill="#013A60" d="M191.934,176.896c0,2.238-0.023,4.477,0.006,6.712c0.033,2.639,1.058,3.615,3.651,3.555
		c2.007-0.046,2.691-0.722,2.935-2.772c0.25-2.11,0.103-4.222,0.152-6.334c0.01-0.418-0.212-1.098,0.397-1.135
		c0.694-0.042,0.413,0.67,0.404,1.036c-0.048,2.224,0.241,4.462-0.212,6.668c-0.457,2.237-2.184,3.423-4.531,3.167
		c-2.146-0.234-3.435-1.656-3.467-3.915c-0.032-2.325-0.007-4.651-0.007-6.977C191.488,176.899,191.711,176.898,191.934,176.896z"/>
	<path fill="#013A60" d="M27.499,176.901c0,2.702,0.184,5.422-0.063,8.102c-0.167,1.822-1.955,2.854-3.953,2.798
		c-2.099-0.06-3.364-1.029-3.829-2.96c-0.585-2.425-0.189-4.893-0.293-7.34c-0.01-0.259-0.062-0.631,0.358-0.615
		c0.483,0.02,0.451,0.436,0.459,0.766c0.062,2.227-0.158,4.456,0.143,6.676c0.305,2.271,0.939,2.83,3.227,2.834
		c2.224,0.006,3.267-0.927,3.354-3.153c0.072-1.826,0.015-3.659,0.015-5.489c0-0.54,0-1.083,0-1.624
		C27.112,176.898,27.304,176.899,27.499,176.901z"/>
	<path fill="#013A60" d="M244.789,187.487c-2.097,0-4.196-0.022-6.293,0.012c-0.776,0.012-0.784-0.435-0.781-0.993
		c0.01-2.916,0.006-5.832,0.003-8.747c-0.001-0.474-0.026-0.921,0.668-0.915c2.082,0.017,4.162,0.008,6.245,0.008
		c0.007,0.211,0.017,0.422,0.023,0.632c-1.466,0-2.935-0.044-4.397,0.021c-0.616,0.027-1.617-0.426-1.78,0.402
		c-0.225,1.142-0.284,2.391,0.08,3.543c0.129,0.406,0.721,0.2,1.102,0.204c1.481,0.02,2.964,0.009,4.468,0.212
		c-1.138,0.687-2.428,0.285-3.638,0.442c-0.689,0.092-1.809-0.43-1.984,0.372c-0.274,1.244-0.14,2.609,0.019,3.9
		c0.054,0.444,0.808,0.222,1.237,0.229c1.67,0.022,3.341,0.009,5.011,0.009C244.776,187.042,244.783,187.265,244.789,187.487z"/>
	<path fill="#013A60" d="M8.175,183.262c-0.629-1.596-1.258-3.191-2.022-5.129c-0.67,1.581-0.363,2.871-0.423,4.109
		c-0.072,1.48-0.005,2.968-0.012,4.452c-0.002,0.317,0.088,0.773-0.432,0.747c-0.505-0.028-0.367-0.487-0.368-0.79
		c-0.012-2.912-0.009-5.825-0.006-8.737c0-0.454-0.058-0.946,0.585-1.054c0.526-0.087,0.836,0.091,1.028,0.623
		c0.666,1.861,1.374,3.708,2.066,5.559C8.451,183.114,8.312,183.188,8.175,183.262z"/>
	<path fill="#013A60" d="M274.448,176.954c2.484,0,4.97,0,7.476,0c-0.205,0.846-0.933,0.576-1.38,0.502
		c-1.743-0.296-2.089,0.465-1.988,2.054c0.145,2.28,0.046,4.574,0.026,6.862c-0.004,0.353,0.181,0.795-0.438,1.146
		c-0.417-0.879-0.195-1.774-0.212-2.617c-0.034-2.002-0.067-4.006,0.013-6.004c0.043-1.088-0.222-1.585-1.396-1.43
		c-0.695,0.093-1.411,0.017-2.119,0.017C274.437,177.308,274.442,177.131,274.448,176.954z"/>
	<path fill="#013A60" d="M234.23,177.034c-0.165,0.515-0.484,0.429-0.74,0.445c-2.696,0.163-2.696,0.161-2.696,2.809
		c0,2.372,0,4.747,0,7.169c-0.933-0.152-0.654-0.732-0.658-1.101c-0.028-2.396-0.08-4.796,0.013-7.189
		c0.049-1.269-0.194-1.92-1.638-1.709c-0.556,0.08-1.218,0.232-2.041-0.423C229.228,177.034,231.699,177.034,234.23,177.034z"/>
	<path fill="#013A60" d="M273.053,187.465c-1.999,0-3.999,0.006-5.997-0.005c-0.367-0.002-0.398-0.293-0.453-0.593
		c-0.139-0.756,0.076-9.238,0.301-10.014c0.559,0.274,0.358,0.783,0.361,1.175c0.021,2.398,0.079,4.799-0.018,7.194
		c-0.051,1.233,0.216,1.752,1.564,1.625c1.399-0.131,2.82-0.027,4.231-0.027C273.047,187.035,273.051,187.249,273.053,187.465z"/>
	<path fill="#013A60" d="M97.671,187.482c-1.96,0-3.919,0.002-5.879-0.002c-0.445,0-0.567-0.28-0.562-0.672
		c0.029-3.248,0.057-6.497,0.096-9.746c0.001-0.054,0.157-0.104,0.384-0.247c0.373,1.596,0.121,3.155,0.181,4.692
		c0.065,1.7-0.531,3.864,0.299,4.975c0.803,1.076,3.091,0.207,4.72,0.341c0.259,0.022,0.515,0.087,0.773,0.132
		C97.678,187.13,97.675,187.306,97.671,187.482z"/>
	<path fill="#013A60" d="M64.694,182.159c0,1.487,0.009,2.974-0.008,4.461c-0.002,0.302,0.155,0.758-0.34,0.813
		c-0.52,0.06-0.458-0.392-0.459-0.711c-0.014-3.031-0.02-6.062-0.017-9.094c0-0.332-0.004-0.771,0.481-0.732
		c0.507,0.041,0.332,0.507,0.335,0.802C64.705,179.186,64.694,180.672,64.694,182.159z"/>
	<path fill="#013A60" d="M102.332,176.968c0.394,1.316,0.147,2.682,0.179,4.021c0.044,1.89,0.017,3.78,0.005,5.671
		c-0.002,0.306,0.128,0.735-0.382,0.789c-0.265,0.027-0.419-0.171-0.419-0.424c-0.006-3.379-0.004-6.758-0.004-10.136
		C101.916,176.915,102.123,176.94,102.332,176.968z"/>
	<path fill="#013A60" d="M45.974,176.77c0,3.444,0.004,6.685-0.006,9.924c-0.001,0.322,0.033,0.751-0.467,0.746
		c-0.41-0.007-0.35-0.374-0.351-0.637c-0.003-3.091,0-6.181,0.007-9.271C45.158,177.217,45.35,177.02,45.974,176.77z"/>
</g>
</svg>
